# xmcd
#
# Track frame offsets:
#	150
#	20360
#	39755
#	60653
#	86670
#	108240
#	129343
#	152388
#	172335
#	205325
#
# Disc length: 3032 seconds
#
# Revision: 262014174
# Processed by: cddbd v1.5.2PL0 Copyright (c) Steve Scherf et al.
# Submitted via: EZCDAudioConverter 8.0.2.1
#
DISCID=770bd60a
DTITLE=Thiên Trang - Nỗi Buồn Đêm Đông
DYEAR=1991
DGENRE=Contemporary Pop
TTITLE0=Lý chim quyên
TTITLE1=Nỗi Buồn Đêm Đông
TTITLE2=Khách lạ đò xưa
TTITLE3=Lời giã biệt
TTITLE4=Chuyện tình Mimosa
TTITLE5=Nếu anh đừng hẹn
TTITLE6=Sầu cố đô
TTITLE7=Khuya nay anh đi rồi
TTITLE8=Con thuyền không bến
TTITLE9=Đời con gái
EXTD=
EXTT0=
EXTT1=
EXTT2=
EXTT3=
EXTT4=
EXTT5=
EXTT6=
EXTT7=
EXTT8=
EXTT9=
PLAYORDER=
